#N canvas 976 181 867 581 10;
#X obj 201 368 pack f f f f f f f f;
#X obj 201 346 f;
#X obj 211 325 t b f;
#X obj 229 306 t b f;
#X obj 244 287 t b f;
#X obj 259 266 t b f;
#X obj 274 247 t b f;
#X obj 291 227 t b f;
#X obj 306 208 t b f;
#X obj 144 68 cnv 15 190 120 empty empty empty 20 12 0 14 -233017 -66577
0;
#X obj 156 91 nbx 5 16 -20000 20000 0 1 empty empty x -10 7 0 12 -203904
-1 -1 -2.04 256;
#X obj 156 111 nbx 5 16 -20000 20000 0 1 empty empty y -10 7 0 12 -203904
-1 -1 -1 256;
#X obj 256 91 nbx 5 16 -2000 20000 0 1 empty empty x -10 7 0 12 -203904
-1 -1 1 256;
#X obj 256 111 nbx 5 16 -20000 20000 0 1 empty empty y -10 7 0 12 -203904
-1 -1 -1 256;
#X obj 256 141 nbx 5 16 -20000 20000 0 1 empty empty x -10 7 0 12 -203904
-1 -1 1 256;
#X obj 256 161 nbx 5 16 -20000 20000 0 1 empty empty y -10 7 0 12 -203904
-1 -1 1 256;
#X obj 156 141 nbx 5 16 -20000 20000 0 1 empty empty x -10 7 0 12 -203904
-1 -1 -1 256;
#X obj 156 161 nbx 5 16 -20000 20000 0 1 empty empty y -10 7 0 12 -203904
-1 -1 1 256;
#X obj 150 71 tgl 15 1 empty empty perspective_correction 17 7 0 10
-262144 -1 -1 1 1;
#X obj 201 410 packOSC;
#X obj 201 542 udpsend;
#X msg 221 433 connect 127.0.0.1 7770;
#X msg 301 514 disconnect;
#X msg 201 389 /dst_point \$1 \$2 \$3 \$4 \$5 \$6 \$7 \$8;
#X obj 131 328 bng 15 250 50 0 empty empty empty 17 7 0 10 -262144
-1 -1;
#X msg 388 67 -1 -1 1 -1 1 1 -1 1;
#X msg 414 182 0 -1 2 -1 2 1 0 1;
#X msg 397 120 -2 -2 2 -2 2 2 -2 2;
#X text 535 119 scale by 2;
#X msg 390 96 -1 1 -1 -1 1 -1 1 1;
#X text 535 96 rotate 90° conterclockwise;
#X text 532 66 no transformation;
#X text 541 184 translate on x axis by 1;
#X msg 409 213 -2 -1 0 -1 0 1 -2 1;
#X msg 414 282 -1 -2 1 -2 1 0 -1 0;
#X text 554 305 translate on y axis by 1;
#X msg 414 302 -1 0 1 0 1 2 -1 2;
#X text 551 214 translate on x axis by -1;
#X obj 201 510 speedlim 50;
#X obj 121 502 udpsend;
#X msg -1 444 connect 192.168.1.8 7770;
#X text 563 284 translate on y axis by -1;
#X obj 78 392 loadbang;
#X obj 121 478 spigot;
#X obj 201 488 spigot;
#X connect 0 0 23 0;
#X connect 1 0 0 0;
#X connect 2 0 1 0;
#X connect 2 1 0 1;
#X connect 3 0 1 0;
#X connect 3 1 0 2;
#X connect 4 0 1 0;
#X connect 4 1 0 3;
#X connect 5 0 1 0;
#X connect 5 1 0 4;
#X connect 6 0 1 0;
#X connect 6 1 0 5;
#X connect 7 0 1 0;
#X connect 7 1 0 6;
#X connect 8 0 1 0;
#X connect 8 1 0 7;
#X connect 10 0 1 0;
#X connect 11 0 2 0;
#X connect 12 0 3 0;
#X connect 13 0 4 0;
#X connect 14 0 5 0;
#X connect 15 0 6 0;
#X connect 16 0 7 0;
#X connect 17 0 8 0;
#X connect 19 0 43 0;
#X connect 19 0 44 0;
#X connect 20 0 44 1;
#X connect 21 0 20 0;
#X connect 22 0 20 0;
#X connect 23 0 19 0;
#X connect 24 0 0 0;
#X connect 25 0 23 0;
#X connect 26 0 23 0;
#X connect 27 0 23 0;
#X connect 29 0 23 0;
#X connect 33 0 23 0;
#X connect 34 0 23 0;
#X connect 36 0 23 0;
#X connect 38 0 20 0;
#X connect 39 0 43 1;
#X connect 40 0 39 0;
#X connect 42 0 21 0;
#X connect 42 0 40 0;
#X connect 43 0 39 0;
#X connect 44 0 38 0;
