#N canvas 330 159 993 581 10;
#X obj 201 410 packOSC;
#X obj 201 542 udpsend;
#X msg 221 433 connect 127.0.0.1 7770;
#X msg 301 514 disconnect;
#X msg 201 309 /dst_point \$1 \$2 \$3 \$4 \$5 \$6 \$7 \$8;
#X obj 201 510 speedlim 50;
#X obj 121 502 udpsend;
#X msg -1 444 connect 192.168.1.8 7770;
#X obj 78 392 loadbang;
#X obj 121 478 spigot;
#X obj 201 488 spigot;
#X msg 474 307 /map_matrix \$1 \$2 \$3 \$4 \$5 \$6 \$7 \$8 \$9;
#N canvas 1 95 450 607 set_corner 0;
#X obj 167 404 pack f f f f f f f f;
#X obj 167 382 f;
#X obj 177 361 t b f;
#X obj 195 342 t b f;
#X obj 210 323 t b f;
#X obj 225 302 t b f;
#X obj 240 283 t b f;
#X obj 257 263 t b f;
#X obj 272 244 t b f;
#X obj 122 177 nbx 5 16 -20000 20000 0 1 empty empty x -10 7 0 12 -203904
-1 -1 -1 256;
#X obj 122 197 nbx 5 16 -20000 20000 0 1 empty empty y -10 7 0 12 -203904
-1 -1 -1 256;
#X obj 222 177 nbx 5 16 -2000 20000 0 1 empty empty x -10 7 0 12 -203904
-1 -1 1 256;
#X obj 222 197 nbx 5 16 -20000 20000 0 1 empty empty y -10 7 0 12 -203904
-1 -1 -1 256;
#X obj 222 127 nbx 5 16 -20000 20000 0 1 empty empty x -10 7 0 12 -203904
-1 -1 1 256;
#X obj 222 147 nbx 5 16 -20000 20000 0 1 empty empty y -10 7 0 12 -203904
-1 -1 1 256;
#X obj 122 127 nbx 5 16 -20000 20000 0 1 empty empty x -10 7 0 12 -203904
-1 -1 -1 256;
#X obj 122 147 nbx 5 16 -20000 20000 0 1 empty empty y -10 7 0 12 -203904
-1 -1 1 256;
#X obj 113 65 unpack 0 0 0 0 0 0 0 0;
#X msg 114 37 -1 -1 1 -1 1 1 -1 1;
#X obj 167 426 outlet;
#X obj 115 2 loadbang;
#X obj 148 106 bng 15 250 50 0 empty empty reset 17 7 0 10 -262144
-1 -1;
#X connect 0 0 19 0;
#X connect 1 0 0 0;
#X connect 2 0 1 0;
#X connect 2 1 0 1;
#X connect 3 0 1 0;
#X connect 3 1 0 2;
#X connect 4 0 1 0;
#X connect 4 1 0 3;
#X connect 5 0 1 0;
#X connect 5 1 0 4;
#X connect 6 0 1 0;
#X connect 6 1 0 5;
#X connect 7 0 1 0;
#X connect 7 1 0 6;
#X connect 8 0 1 0;
#X connect 8 1 0 7;
#X connect 9 0 1 0;
#X connect 10 0 2 0;
#X connect 11 0 3 0;
#X connect 12 0 4 0;
#X connect 13 0 5 0;
#X connect 14 0 6 0;
#X connect 15 0 7 0;
#X connect 16 0 8 0;
#X connect 17 0 9 0;
#X connect 17 1 10 0;
#X connect 17 2 11 0;
#X connect 17 3 12 0;
#X connect 17 4 13 0;
#X connect 17 5 14 0;
#X connect 17 6 15 0;
#X connect 17 7 16 0;
#X connect 18 0 17 0;
#X connect 20 0 18 0;
#X connect 21 0 18 0;
#X coords 0 -1 1 1 200 120 2 100 100;
#X restore 201 177 pd set_corner;
#X text 208 161 set corners coordinates;
#N canvas 1 90 450 601 map_matrix 0;
#X obj 157 379 f;
#X obj 167 358 t b f;
#X obj 185 339 t b f;
#X obj 200 320 t b f;
#X obj 215 299 t b f;
#X obj 230 280 t b f;
#X obj 247 260 t b f;
#X obj 262 241 t b f;
#X obj 112 124 nbx 5 16 -20000 20000 0 1 empty empty empty -10 7 0
12 -203904 -1 -1 1 256;
#X obj 192 124 nbx 5 16 -20000 20000 0 1 empty empty empty -10 7 0
12 -203904 -1 -1 0 256;
#X obj 272 124 nbx 5 16 -2000 20000 0 1 empty empty empty -10 7 0 12
-203904 -1 -1 0 256;
#X obj 112 154 nbx 5 16 -20000 20000 0 1 empty empty empty -10 7 0
12 -203904 -1 -1 0 256;
#X obj 192 154 nbx 5 16 -20000 20000 0 1 empty empty empty -10 7 0
12 -203904 -1 -1 1 256;
#X obj 272 154 nbx 5 16 -20000 20000 0 1 empty empty empty -10 7 0
12 -203904 -1 -1 0 256;
#X obj 112 184 nbx 5 16 -20000 20000 0 1 empty empty empty -10 7 0
12 -203904 -1 -1 0 256;
#X obj 192 184 nbx 5 16 -20000 20000 0 1 empty empty empty -10 7 0
12 -203904 -1 -1 0 256;
#X obj 272 184 nbx 5 16 -20000 20000 0 1 empty empty empty -10 7 0
12 -203904 -1 -1 1 256;
#X obj 300 222 t b f;
#X obj 156 418 pack f f f f f f f f f;
#X msg 97 45 1 0 0 0 1 0 0 0 1;
#X obj 96 73 unpack 0 0 0 0 0 0 0 0 0;
#X text 226 47 reset;
#X obj 156 440 outlet;
#X obj 95 17 loadbang;
#X obj 146 105 bng 15 250 50 0 empty empty reset 17 7 0 10 -262144
-1 -1;
#X connect 0 0 18 0;
#X connect 1 0 0 0;
#X connect 1 1 18 1;
#X connect 2 0 0 0;
#X connect 2 1 18 2;
#X connect 3 0 0 0;
#X connect 3 1 18 3;
#X connect 4 0 0 0;
#X connect 4 1 18 4;
#X connect 5 0 0 0;
#X connect 5 1 18 5;
#X connect 6 0 0 0;
#X connect 6 1 18 6;
#X connect 7 0 0 0;
#X connect 7 1 18 7;
#X connect 8 0 0 0;
#X connect 9 0 1 0;
#X connect 10 0 2 0;
#X connect 11 0 3 0;
#X connect 12 0 4 0;
#X connect 13 0 5 0;
#X connect 14 0 6 0;
#X connect 15 0 7 0;
#X connect 16 0 17 0;
#X connect 17 0 18 0;
#X connect 17 1 18 8;
#X connect 18 0 22 0;
#X connect 19 0 20 0;
#X connect 20 0 8 0;
#X connect 20 1 9 0;
#X connect 20 2 10 0;
#X connect 20 3 11 0;
#X connect 20 4 12 0;
#X connect 20 5 13 0;
#X connect 20 6 14 0;
#X connect 20 7 15 0;
#X connect 20 8 16 0;
#X connect 23 0 19 0;
#X connect 24 0 19 0;
#X coords 0 -1 1 1 250 120 2 100 100;
#X restore 474 179 pd map_matrix;
#X text 489 158 directly set perspective transformation matrix;
#X connect 0 0 9 0;
#X connect 0 0 10 0;
#X connect 1 0 10 1;
#X connect 2 0 1 0;
#X connect 3 0 1 0;
#X connect 4 0 0 0;
#X connect 5 0 1 0;
#X connect 6 0 9 1;
#X connect 7 0 6 0;
#X connect 8 0 2 0;
#X connect 8 0 7 0;
#X connect 9 0 6 0;
#X connect 10 0 5 0;
#X connect 11 0 0 0;
#X connect 12 0 4 0;
#X connect 14 0 11 0;
